<svg height="512pt" viewBox="0 0 512.00002 512.00002" width="512pt" xmlns="http://www.w3.org/2000/svg"><g fill="#aed0ff"><path d="m164.816406 0c-8.339844 0-15.101562 6.761719-15.101562 15.101562v79.070313c0 8.34375 6.761718 15.105469 15.101562 15.105469 8.34375 0 15.105469-6.761719 15.105469-15.105469v-79.070313c0-8.339843-6.761719-15.101562-15.105469-15.101562zm0 0"/><path d="m256 0c-8.339844 0-15.101562 6.761719-15.101562 15.101562v79.070313c0 8.34375 6.761718 15.105469 15.101562 15.105469s15.101562-6.761719 15.101562-15.105469v-79.070313c0-8.339843-6.761718-15.101562-15.101562-15.101562zm0 0"/><path d="m164.816406 402.722656c-8.339844 0-15.101562 6.761719-15.101562 15.105469v79.070313c0 8.339843 6.761718 15.101562 15.101562 15.101562 8.34375 0 15.105469-6.761719 15.105469-15.101562v-79.070313c0-8.34375-6.761719-15.105469-15.105469-15.105469zm0 0"/><path d="m256 402.722656c-8.339844 0-15.101562 6.761719-15.101562 15.105469v79.070313c0 8.339843 6.761718 15.101562 15.101562 15.101562s15.101562-6.761719 15.101562-15.101562v-79.070313c0-8.34375-6.761718-15.105469-15.101562-15.105469zm0 0"/><path d="m94.171875 139.878906h-79.070313c-8.339843 0-15.101562 6.761719-15.101562 15.105469 0 8.339844 6.761719 15.101563 15.101562 15.101563h79.070313c8.34375 0 15.105469-6.761719 15.105469-15.101563 0-8.34375-6.761719-15.105469-15.105469-15.105469zm0 0"/><path d="m94.171875 231.0625h-79.070313c-8.339843 0-15.101562 6.761719-15.101562 15.101562 0 8.34375 6.761719 15.105469 15.101562 15.105469h79.070313c8.34375 0 15.105469-6.761719 15.105469-15.105469 0-8.339843-6.761719-15.101562-15.105469-15.101562zm0 0"/><path d="m94.171875 322.246094h-79.070313c-8.339843 0-15.101562 6.761718-15.101562 15.101562s6.761719 15.105469 15.101562 15.105469h79.070313c8.34375 0 15.105469-6.765625 15.105469-15.105469s-6.761719-15.101562-15.105469-15.101562zm0 0"/></g><path d="m271.101562 15.101562v79.070313c0 8.339844-6.765624 15.105469-15.101562 15.105469v-109.277344c8.335938 0 15.101562 6.765625 15.101562 15.101562zm0 0" fill="#8cbcff"/><path d="m347.183594 0c-8.34375 0-15.105469 6.761719-15.105469 15.101562v79.070313c0 8.34375 6.761719 15.105469 15.105469 15.105469 8.339844 0 15.101562-6.761719 15.101562-15.105469v-79.070313c0-8.339843-6.761718-15.101562-15.101562-15.101562zm0 0" fill="#8cbcff"/><path d="m271.101562 417.828125v79.070313c0 8.335937-6.765624 15.101562-15.101562 15.101562v-109.277344c8.335938 0 15.101562 6.765625 15.101562 15.105469zm0 0" fill="#8cbcff"/><path d="m347.183594 402.722656c-8.34375 0-15.105469 6.761719-15.105469 15.105469v79.070313c0 8.339843 6.761719 15.101562 15.105469 15.101562 8.339844 0 15.101562-6.761719 15.101562-15.101562v-79.070313c0-8.34375-6.761718-15.105469-15.101562-15.105469zm0 0" fill="#8cbcff"/><path d="m417.828125 170.085938h79.070313c8.339843 0 15.101562-6.761719 15.101562-15.101563 0-8.34375-6.761719-15.105469-15.101562-15.105469h-79.070313c-8.34375 0-15.105469 6.761719-15.105469 15.105469 0 8.339844 6.761719 15.101563 15.105469 15.101563zm0 0" fill="#8cbcff"/><path d="m496.898438 231.0625h-79.070313c-8.34375 0-15.105469 6.761719-15.105469 15.101562 0 8.34375 6.761719 15.105469 15.105469 15.105469h79.070313c8.339843 0 15.101562-6.761719 15.101562-15.105469 0-8.339843-6.761719-15.101562-15.101562-15.101562zm0 0" fill="#8cbcff"/><path d="m496.898438 322.246094h-79.070313c-8.34375 0-15.105469 6.761718-15.105469 15.101562s6.761719 15.105469 15.105469 15.105469h79.070313c8.339843 0 15.101562-6.765625 15.101562-15.105469s-6.761719-15.101562-15.101562-15.101562zm0 0" fill="#8cbcff"/><path d="m404.113281 79.070312h-296.226562c-15.890625 0-28.816407 12.925782-28.816407 28.816407v296.226562c0 15.890625 12.925782 28.816407 28.816407 28.816407h296.226562c15.890625 0 28.816407-12.925782 28.816407-28.816407v-296.226562c0-15.890625-12.925782-28.816407-28.816407-28.816407zm0 0" fill="#4895ff"/><path d="m432.929688 107.886719v296.226562c0 15.886719-12.929688 28.816407-28.816407 28.816407h-148.113281v-353.859376h148.113281c15.886719 0 28.816407 12.929688 28.816407 28.816407zm0 0" fill="#2682ff"/><path d="m357.953125 138.945312h-203.90625c-8.339844 0-15.101563 6.761719-15.101563 15.101563v203.90625c0 8.339844 6.761719 15.101563 15.101563 15.101563h203.90625c8.339844 0 15.101563-6.761719 15.101563-15.101563v-203.90625c0-8.339844-6.761719-15.101563-15.101563-15.101563zm-70.753906 101.953126h-16.097657v-18.757813h71.746094v57.019531h-40.542968v-23.160156c0-8.339844-6.761719-15.101562-15.105469-15.101562zm55.648437-48.964844h-71.746094v-22.78125h71.746094zm-101.949218-22.78125v71.746094h-71.746094v-71.746094zm-71.746094 101.949218h102.945312v71.746094h-102.945312zm133.152344 71.746094v-33.484375h40.542968v33.484375zm0 0" fill="#aed0ff"/><path d="m357.945312 138.949219h-101.945312v132.152343h16.101562v71.742188h-16.101562v30.207031h101.945312c8.347657 0 15.105469-6.757812 15.105469-15.105469v-203.890624c0-8.347657-6.757812-15.105469-15.105469-15.105469zm-15.101562 203.894531h-40.539062v-33.480469h40.539062zm0-63.683594h-40.539062v-23.160156c0-8.335938-6.765626-15.101562-15.101563-15.101562h-16.101563v-18.761719h71.742188zm0-87.226562h-71.742188v-22.777344h71.742188zm0 0" fill="#8cbcff"/></svg>